<?xml version="1.0" encoding="UTF-8"?>
<svg version="1.1" xmlns="http://www.w3.org/2000/svg" width="162" height="40">
<path d="M0 0 C53.46 0 106.92 0 162 0 C162 13.2 162 26.4 162 40 C108.54 40 55.08 40 0 40 C0 26.8 0 13.6 0 0 Z " fill="#FAFAFA" transform="translate(0,0)"/>
<path d="M0 0 C3.86107457 2.57404971 3.94319692 4.61020259 5 9 C5.969375 8.236875 6.93875 7.47375 7.9375 6.6875 C8.48277344 6.25824219 9.02804688 5.82898438 9.58984375 5.38671875 C11.27155077 3.94316909 11.27155077 3.94316909 12 1 C15.465 0.505 15.465 0.505 19 0 C18.8125 2.8125 18.8125 2.8125 18 6 C15.75 7.5625 15.75 7.5625 13 9 C10.04089856 11.1255155 10.04089856 11.1255155 8 14 C8.08423587 18.63297284 9.41531183 22.66851901 11 27 C10.34 27 9.68 27 9 27 C8.67 25.35 8.34 23.7 8 22 C6.02 21.67 4.04 21.34 2 21 C2.66 23.64 3.32 26.28 4 29 C3.01 29 2.02 29 1 29 C0.67 26.69 0.34 24.38 0 22 C-0.886875 22.495 -1.77375 22.99 -2.6875 23.5 C-5.974361 24.98838989 -7.51193007 25.09179131 -11 25 C-13.25132517 25.91568906 -13.25132517 25.91568906 -15 27 C-15 27.66 -15 28.32 -15 29 C-15.66 29 -16.32 29 -17 29 C-17 28.01 -17 27.02 -17 26 C-18.32 27.65 -19.64 29.3 -21 31 C-22.32 30.34 -23.64 29.68 -25 29 C-23.61211066 25.81273653 -22.00538267 23.88378016 -19.4375 21.5625 C-16.41532566 18.67037824 -15.79420205 17.08446766 -15 13 C-12.0625 11.125 -12.0625 11.125 -9 10 C-8.34 10.33 -7.68 10.66 -7 11 C-6.67 11.99 -6.34 12.98 -6 14 C-4.68 13.34 -3.36 12.68 -2 12 C-2.99 11.67 -3.98 11.34 -5 11 C-6.1875 7.9375 -6.1875 7.9375 -7 5 C-5.02 5 -3.04 5 -1 5 C-0.67 3.35 -0.34 1.7 0 0 Z " fill="#0D0F0D" transform="translate(32,5)"/>
<path d="M0 0 C3.32274404 2.45594125 4.77618008 3.9256644 5.625 8 C4.77618008 12.0743356 3.32274404 13.54405875 0 16 C-3.0625 16.625 -3.0625 16.625 -6 16 C-9.16196359 13.25408425 -9.91691332 11.59199258 -10.5 7.4375 C-10 4 -10 4 -8.375 1.5625 C-5.24316508 -0.49791771 -3.68455227 -0.6767545 0 0 Z " fill="#1D1D1D" transform="translate(98,13)"/>
<path d="M0 0 C2.375 1 2.375 1 4 2 C3.67 2.99 3.34 3.98 3 5 C0.36 5 -2.28 5 -5 5 C-5 5.66 -5 6.32 -5 7 C-4.44570312 7.19335938 -3.89140625 7.38671875 -3.3203125 7.5859375 C-2.23363281 7.97652344 -2.23363281 7.97652344 -1.125 8.375 C-0.40570313 8.63023438 0.31359375 8.88546875 1.0546875 9.1484375 C3 10 3 10 5 12 C4.875 15.5 4.875 15.5 4 19 C1.68635865 20.97087967 0.02161273 20.99774867 -3 21.3125 C-6.30074854 20.96867203 -7.59688219 20.21826259 -10 18 C-9.505 16.515 -9.505 16.515 -9 15 C-6.03 15.33 -3.06 15.66 0 16 C0 15.34 0 14.68 0 14 C-0.63808594 13.78085937 -1.27617188 13.56171875 -1.93359375 13.3359375 C-4.43665387 12.37532473 -6.71030526 11.39782863 -9 10 C-10.3125 7 -10.3125 7 -10 4 C-7.26194142 -0.16184904 -4.80698859 -0.60087357 0 0 Z " fill="#1B1B1B" transform="translate(69,8)"/>
<path d="M0 0 C1.32 0 2.64 0 4 0 C3.14613611 3.75324786 1.9329537 7.36003623 0.6875 11 C0.27886719 12.216875 -0.12976563 13.43375 -0.55078125 14.6875 C-1.9950349 17.9886512 -3.18796267 19.78545208 -6 22 C-8.75 22.25 -8.75 22.25 -11 22 C-11 20.68 -11 19.36 -11 18 C-9.35 18 -7.7 18 -6 18 C-6.27714844 17.10796875 -6.55429688 16.2159375 -6.83984375 15.296875 C-7.20207031 14.12640625 -7.56429687 12.9559375 -7.9375 11.75 C-8.29714844 10.58984375 -8.65679687 9.4296875 -9.02734375 8.234375 C-9.75066637 5.82910942 -10.42542411 3.44345956 -11 1 C-9.68 1 -8.36 1 -7 1 C-6.01 3.31 -5.02 5.62 -4 8 C-2.22293791 5.33440687 -1.12451727 2.9719385 0 0 Z " fill="#191919" transform="translate(149,13)"/>
<path d="M0 0 C0.94875 0.04125 1.8975 0.0825 2.875 0.125 C3.205 0.785 3.535 1.445 3.875 2.125 C3.215 2.785 2.555 3.445 1.875 4.125 C0.885 3.795 -0.105 3.465 -1.125 3.125 C-1.125 4.445 -1.125 5.765 -1.125 7.125 C0.195 7.125 1.515 7.125 2.875 7.125 C2.875 7.785 2.875 8.445 2.875 9.125 C1.555 9.125 0.235 9.125 -1.125 9.125 C-1.125 13.415 -1.125 17.705 -1.125 22.125 C-2.445 22.125 -3.765 22.125 -5.125 22.125 C-5.125 17.835 -5.125 13.545 -5.125 9.125 C-5.785 9.125 -6.445 9.125 -7.125 9.125 C-7.125 8.465 -7.125 7.805 -7.125 7.125 C-6.465 7.125 -5.805 7.125 -5.125 7.125 C-5.16625 6.34125 -5.2075 5.5575 -5.25 4.75 C-5.05795839 0.71712612 -3.942779 0.15771116 0 0 Z " fill="#141414" transform="translate(134.125,6.875)"/>
<path d="M0 0 C1.32 0 2.64 0 4 0 C4.33 1.32 4.66 2.64 5 4 C5.66 4 6.32 4 7 4 C7.33 2.68 7.66 1.36 8 0 C9.32 0 10.64 0 12 0 C11.62875 1.19625 11.2575 2.3925 10.875 3.625 C9.84267566 7.65393248 10.26898637 10.15330304 12 14 C8.73045798 13.43628586 7.17424117 12.50037734 5 10 C4.67 11.32 4.34 12.64 4 14 C2.68 14 1.36 14 0 14 C0.25136719 13.11248047 0.25136719 13.11248047 0.5078125 12.20703125 C2.14298112 5.96693485 2.14298112 5.96693485 0 0 Z " fill="#0F0F0F" transform="translate(105,14)"/>
<path d="M0 0 C0.99 0 1.98 0 3 0 C3 1.32 3 2.64 3 4 C4.32 4 5.64 4 7 4 C7 4.66 7 5.32 7 6 C5.68 6 4.36 6 3 6 C3 8.97 3 11.94 3 15 C4.65 15.33 6.3 15.66 8 16 C7.67 16.99 7.34 17.98 7 19 C2.49625468 19.36516854 2.49625468 19.36516854 0.34375 17.78125 C-1.39217091 15.48014554 -1.31131194 14.16017456 -1.1875 11.3125 C-1.16042969 10.50425781 -1.13335937 9.69601563 -1.10546875 8.86328125 C-1.05326172 7.94095703 -1.05326172 7.94095703 -1 7 C-1.66 7 -2.32 7 -3 7 C-3 5.68 -3 4.36 -3 3 C-2.34 3 -1.68 3 -1 3 C-0.67 2.01 -0.34 1.02 0 0 Z " fill="#1F1F1F" transform="translate(78,10)"/>
<path d="M0 0 C-0.1875 2.8125 -0.1875 2.8125 -1 6 C-3.25 7.5625 -3.25 7.5625 -6 9 C-8.74891247 11.55712788 -10.91553426 13.8733014 -13 17 C-13.875 13.875 -13.875 13.875 -14 10 C-12.65260875 8.14946898 -11.2056583 6.81677757 -9.4453125 5.359375 C-7.72065667 3.95263133 -7.72065667 3.95263133 -7 1 C-4 0 -4 0 0 0 Z " fill="#2AB02A" transform="translate(51,5)"/>
<path d="M0 0 C0.375 3.25 0.375 3.25 0 7 C-2.875 9.25 -2.875 9.25 -6 11 C-6.99 12.485 -6.99 12.485 -8 14 C-9.32 13.34 -10.64 12.68 -12 12 C-10.53033642 8.60140297 -8.61962486 6.35036291 -6 3.75 C-5.29875 3.04359375 -4.5975 2.3371875 -3.875 1.609375 C-2 0 -2 0 0 0 Z " fill="#2FAF2F" transform="translate(19,22)"/>
<path d="M0 0 C2.5 0.125 2.5 0.125 3.5 1.125 C3.21269945 3.46444736 2.88063221 5.7989143 2.5 8.125 C0.83388095 8.167721 -0.83382885 8.16563832 -2.5 8.125 C-3.5 7.125 -3.5 7.125 -3.625 4.125 C-3.46033403 0.1730167 -3.46033403 0.1730167 0 0 Z " fill="#F0F0F0" transform="translate(95.5,16.875)"/>
<path d="M0 0 C0.99 0 1.98 0 3 0 C3 4.62 3 9.24 3 14 C2.01 14 1.02 14 0 14 C0 9.38 0 4.76 0 0 Z " fill="#000000" transform="translate(121,14)"/>
<path d="M0 0 C0.66 0.33 1.32 0.66 2 1 C2.625 3.0625 2.625 3.0625 3 5 C0.36 5 -2.28 5 -5 5 C-4.1875 3.0625 -4.1875 3.0625 -3 1 C-2.01 0.67 -1.02 0.34 0 0 Z " fill="#5DAA5D" transform="translate(23,15)"/>
<path d="M0 0 C0.99 0 1.98 0 3 0 C3 0.66 3 1.32 3 2 C4.32 2.33 5.64 2.66 7 3 C6.01 3.99 5.02 4.98 4 6 C2.68 5.34 1.36 4.68 0 4 C0 2.68 0 1.36 0 0 Z " fill="#D8DBD8" transform="translate(24,14)"/>
<path d="M0 0 C-1.2065625 0.6496875 -1.2065625 0.6496875 -2.4375 1.3125 C-5.27846354 2.80474002 -5.27846354 2.80474002 -6 6 C-7.32 5.34 -8.64 4.68 -10 4 C-10 3.34 -10 2.68 -10 2 C-8.71211992 1.46987262 -7.41953322 0.9511671 -6.125 0.4375 C-5.40570312 0.14746094 -4.68640625 -0.14257812 -3.9453125 -0.44140625 C-2 -1 -2 -1 0 0 Z " fill="#7D937D" transform="translate(32,28)"/>
<path d="M0 0 C1.98 0.495 1.98 0.495 4 1 C3.67 2.32 3.34 3.64 3 5 C1.68 4.67 0.36 4.34 -1 4 C-0.67 2.68 -0.34 1.36 0 0 Z " fill="#3B3B3B" transform="translate(121,7)"/>
<path d="M0 0 C0.66 0.33 1.32 0.66 2 1 C1.67 1.33 1.34 1.66 1 2 C3.97 2.495 3.97 2.495 7 3 C7 3.33 7 3.66 7 4 C4.36 4.33 1.72 4.66 -1 5 C-1 1 -1 1 0 0 Z " fill="#244624" transform="translate(18,17)"/>
</svg>
